# xmcd
#
# Track frame offsets:
#	150
#	13510
#	27642
#	42170
#	52451
#	66712
#	78359
#	96545
#	108758
#	119859
#	132418
#	143521
#	162260
#	174111
#	184224
#	197865
#	211480
#	222848
#
# Disc length: 3178 seconds
#
# Revision: 0
# Processed by: cddbd v1.5.1PL0 Copyright (c) Steve Scherf et al.
# Submitted via: EasyCDDAExtractor 4.6.0.1
#
DISCID=170c6812
DTITLE=Various Artist - Country Love Songs
DYEAR=1999
DGENRE=Country
TTITLE0=Crystal Gayle, Dreaming My Dreams With You
TTITLE1=Glen Campbell - She Thinks I still Care
TTITLE2=Jeanne Pruett, Satin Sheets
TTITLE3=Willie Nelson, There'll Be No Teardrops Tonight
TTITLE4=The Bellamy Brothers, If I Said You Had a beautiful Body
TTITLE5=Patsy Cline, Sweet Dreams
TTITLE6=Don WIlliams, I Believe in You
TTITLE7=Jeanne Black, He'll Have to Stay
TTITLE8=Freddie Hart, Easy Lovin'
TTITLE9=Jean Shepard, Think I'll go Somewhere and Cry Myself to Sleep
TTITLE10=Bobby Darin, You're the Reason I'm Living
TTITLE11=Juice Newton, Angel of the Moring
TTITLE12=Billie Jo Spears, Misty Blue
TTITLE13=Willie Nelson, Touch Me
TTITLE14=Glen Ca,pbell, Mary in the Morning
TTITLE15=Patsy Cline, She's Got You
TTITLE16=Sonny James, Young Love
TTITLE17=Crystal Gayle, When I Dream
EXTD=
EXTT0=
EXTT1=
EXTT2=
EXTT3=
EXTT4=
EXTT5=
EXTT6=
EXTT7=
EXTT8=
EXTT9=
EXTT10=
EXTT11=
EXTT12=
EXTT13=
EXTT14=
EXTT15=
EXTT16=
EXTT17=
PLAYORDER=
